<?xml version="1.0" encoding="UTF-8"?>
<svg width="177px" height="39px" viewBox="0 0 177 39" version="1.1" xmlns="http://www.w3.org/2000/svg" xmlns:xlink="http://www.w3.org/1999/xlink">
    <!-- Generator: Sketch 46.2 (44496) - http://www.bohemiancoding.com/sketch -->
    <title>Logo</title>
    <desc>Created with Sketch.</desc>
    <defs></defs>
    <g id="Symbols" stroke="none" stroke-width="1" fill="none" fill-rule="evenodd">
        <g id="nav/current-page" transform="translate(-88.000000, -41.000000)" fill="#6060FF">
            <g id="Logo" transform="translate(88.000000, 41.000000)">
                <path d="M23.9975667,30.1691 C23.4247,30.2180667 21.9461667,30.2280333 20.5278667,30.2159 C19.0181333,30.2033333 16.5962333,30.1184 15.9245667,30.0867667 C14.5002,30.0187333 13.5702667,30.6748 12.8977333,31.5159 C12.7226667,31.7234667 12.5402333,31.6983333 12.467,31.6654 C12.3032,31.5913 12.2499,31.486 12.2382,31.2879667 C12.2000667,30.6514 12.1480667,27.5617333 12.233,24.7550333 C12.3183667,21.9479 14.1041333,19.8384333 16.7756333,19.4657667 C18.2849333,19.2551667 19.5845,19.2573333 20.7185333,19.2560333 C22.1706333,19.2547333 23.4468,19.2881 24.661,19.4250333 C27.1756333,19.708 29.2495667,22.1819 29.2495667,24.8499333 C29.2495667,27.7537 27.0517,29.9086667 23.9975667,30.1691 M12.2226,11.5544 C12.2884667,9.38903333 13.6660333,7.76143333 15.7269667,7.47413333 C16.8909,7.31163333 17.8936333,7.31336667 18.7685333,7.3125 C19.8887,7.3112 20.8732333,7.3372 21.8101,7.4425 C23.7497,7.6609 25.3495667,9.5693 25.3495667,11.6276333 C25.3495667,13.8675333 23.6539333,15.5302333 21.2979,15.7308667 C20.8563333,15.7685667 19.7153667,15.7763667 18.6216333,15.7672667 C17.4568333,15.7573 15.5883,15.6918667 15.0700333,15.6671667 C13.9715333,15.6147333 13.2539333,16.1208667 12.7352333,16.77 C12.6004667,16.9303333 12.4592,16.9108333 12.4028667,16.8852667 C12.2767667,16.8280667 12.2356,16.7470333 12.2265,16.5940667 C12.1974667,16.1031 12.1567333,13.7193333 12.2226,11.5544 M36.8580333,9.28113333 L29.7188667,2.14196667 C28.3473667,0.770466667 26.4875,0 24.5479,0 L14.4516667,0 C12.5120667,0 10.6522,0.770466667 9.2807,2.14196667 L2.14153333,9.28113333 C0.770466667,10.6526333 0,12.5125 0,14.4516667 L0,24.5483333 C0,26.4875 0.770466667,28.3478 2.14153333,29.7188667 L9.2807,36.8584667 C10.6522,38.2295333 12.5120667,39 14.4516667,39 L24.5479,39 C26.4875,39 28.3473667,38.2295333 29.7188667,36.8584667 L36.8580333,29.7188667 C38.2295333,28.3478 39,26.4875 39,24.5483333 L39,14.4516667 C39,12.5125 38.2295333,10.6526333 36.8580333,9.28113333" id="Fill-1"></path>
                <path d="M77.4592757,28.4594595 C78.0793183,28.4594595 78.5736301,28.3578579 78.9426415,28.1555305 C79.3120836,27.9527653 79.6070344,27.7031406 79.8287857,27.4053428 C80.0501065,27.1084209 80.1973666,26.7909159 80.2714273,26.4528278 C80.3450573,26.1151777 80.3825182,25.8108108 80.3825182,25.5406031 L80.3825182,23.7161537 L78.1680189,23.7161537 C77.2224539,23.7161537 76.4551512,23.9057808 75.8648189,24.2837212 C75.2740561,24.6629755 74.9795359,25.3111236 74.9795359,26.2294795 C74.9795359,26.8517893 75.1633957,27.3786286 75.5328378,27.8108734 C75.9018492,28.2435561 76.5438517,28.4594595 77.4592757,28.4594595 L77.4592757,28.4594595 Z M85.4315596,32.6351977 C84.8403662,32.6351977 84.1613335,32.527465 83.3936001,32.3106857 C82.6258668,32.0947823 82.0355346,31.6489615 81.6226035,30.9727853 C81.061551,31.5950951 80.3230975,32.0877753 79.4081041,32.4525776 C78.4922495,32.8173799 77.2818746,33 75.7761184,33 C74.8021348,33 73.9009201,32.8913914 73.0746272,32.6759259 C72.2474731,32.4595846 71.5318406,32.1017893 70.9268685,31.6012262 C70.3214658,31.101539 69.8486833,30.4393769 69.5093822,29.6151777 C69.1696505,28.7905405 69,27.7565691 69,26.5137012 C69,24.0546797 69.804333,22.3112487 71.4138603,21.2838463 C73.022957,20.2568819 75.3481168,19.7431807 78.3893396,19.7431807 L80.3825182,19.7431807 L80.3825182,18.8918293 C80.3825182,18.1087963 80.1676563,17.5075075 79.7400852,17.087525 C79.3120836,16.6688564 78.5365997,16.459522 77.4149254,16.459522 C76.1451299,16.459522 74.9717853,16.5479855 73.8944613,16.7231607 C72.8158455,16.8992117 71.7161311,17.1352603 70.5948874,17.4326201 L70.5948874,12.8110611 C71.0078185,12.7033283 71.4952409,12.6017267 72.0562933,12.5066942 C72.6169152,12.4125375 73.2003581,12.324512 73.8057608,12.2434935 C74.4103023,12.162037 75.0303449,12.1011637 75.665458,12.0608734 C76.3001405,12.0201451 76.8835834,12 77.4149254,12 C79.304333,12 80.8251598,12.1418919 81.976975,12.4261136 C83.1283597,12.7094595 84.0209627,13.1491491 84.6560758,13.7434309 C85.2907583,14.3381507 85.7191905,15.0953453 85.9405113,16.0137012 C86.161832,16.9329329 86.2724924,18.0142017 86.2724924,19.2566316 L86.2724924,27.2835961 C86.2724924,27.6895646 86.3904727,28.0070696 86.6272946,28.2361111 C86.8632552,28.4664665 87.3205366,28.5812062 88,28.5812062 L88,32.6351977 L85.4315596,32.6351977 Z" id="Fill-4"></path>
                <path d="M100.459276,28.4594595 C101.079318,28.4594595 101.57363,28.3578579 101.942642,28.1555305 C102.312084,27.9527653 102.607034,27.7031406 102.828786,27.4053428 C103.050107,27.1084209 103.197367,26.7909159 103.271427,26.4528278 C103.345057,26.1151777 103.382518,25.8108108 103.382518,25.5406031 L103.382518,23.7161537 L101.168019,23.7161537 C100.222454,23.7161537 99.4551512,23.9057808 98.8648189,24.2837212 C98.2740561,24.6629755 97.9795359,25.3111236 97.9795359,26.2294795 C97.9795359,26.8517893 98.1633957,27.3786286 98.5328378,27.8108734 C98.9018492,28.2435561 99.5438517,28.4594595 100.459276,28.4594595 L100.459276,28.4594595 Z M108.43156,32.6351977 C107.840366,32.6351977 107.161333,32.527465 106.3936,32.3106857 C105.625867,32.0947823 105.035535,31.6489615 104.622603,30.9727853 C104.061551,31.5950951 103.323097,32.0877753 102.408104,32.4525776 C101.492249,32.8173799 100.281875,33 98.7761184,33 C97.8021348,33 96.9009201,32.8913914 96.0746272,32.6759259 C95.2474731,32.4595846 94.5318406,32.1017893 93.9268685,31.6012262 C93.3214658,31.101539 92.8486833,30.4393769 92.5093822,29.6151777 C92.1696505,28.7905405 92,27.7565691 92,26.5137012 C92,24.0546797 92.804333,22.3112487 94.4138603,21.2838463 C96.022957,20.2568819 98.3481168,19.7431807 101.38934,19.7431807 L103.382518,19.7431807 L103.382518,18.8918293 C103.382518,18.1087963 103.167656,17.5075075 102.740085,17.087525 C102.312084,16.6688564 101.5366,16.459522 100.414925,16.459522 C99.1451299,16.459522 97.9717853,16.5479855 96.8944613,16.7231607 C95.8158455,16.8992117 94.7161311,17.1352603 93.5948874,17.4326201 L93.5948874,12.8110611 C94.0078185,12.7033283 94.4952409,12.6017267 95.0562933,12.5066942 C95.6169152,12.4125375 96.2003581,12.324512 96.8057608,12.2434935 C97.4103023,12.162037 98.0303449,12.1011637 98.665458,12.0608734 C99.3001405,12.0201451 99.8835834,12 100.414925,12 C102.304333,12 103.82516,12.1418919 104.976975,12.4261136 C106.12836,12.7094595 107.020963,13.1491491 107.656076,13.7434309 C108.290758,14.3381507 108.71919,15.0953453 108.940511,16.0137012 C109.161832,16.9329329 109.272492,18.0142017 109.272492,19.2566316 L109.272492,27.2835961 C109.272492,27.6895646 109.390473,28.0070696 109.627295,28.2361111 C109.862825,28.4664665 110.320537,28.5812062 111,28.5812062 L111,32.6351977 L108.43156,32.6351977 Z" id="Fill-6"></path>
                <path d="M144.459276,28.4594595 C145.079318,28.4594595 145.57363,28.3578579 145.942642,28.1555305 C146.312084,27.9527653 146.607034,27.7031406 146.828786,27.4053428 C147.050107,27.1084209 147.197367,26.7909159 147.271427,26.4528278 C147.345057,26.1151777 147.382518,25.8108108 147.382518,25.5406031 L147.382518,23.7161537 L145.168019,23.7161537 C144.222454,23.7161537 143.455151,23.9057808 142.864819,24.2837212 C142.274056,24.6629755 141.979536,25.3111236 141.979536,26.2294795 C141.979536,26.8517893 142.163396,27.3786286 142.532838,27.8108734 C142.901849,28.2435561 143.543852,28.4594595 144.459276,28.4594595 L144.459276,28.4594595 Z M152.43156,32.6351977 C151.840366,32.6351977 151.161333,32.527465 150.3936,32.3106857 C149.626297,32.0947823 149.035535,31.6489615 148.622603,30.9727853 C148.061551,31.5950951 147.323097,32.0877753 146.408104,32.4525776 C145.492249,32.8173799 144.281875,33 142.776118,33 C141.802135,33 140.90092,32.8913914 140.074627,32.6759259 C139.247473,32.4595846 138.531841,32.1017893 137.926869,31.6012262 C137.321466,31.101539 136.848683,30.4393769 136.509382,29.6151777 C136.169651,28.7905405 136,27.7565691 136,26.5137012 C136,24.0546797 136.804333,22.3112487 138.41386,21.2838463 C140.022957,20.2568819 142.348117,19.7431807 145.38934,19.7431807 L147.382518,19.7431807 L147.382518,18.8918293 C147.382518,18.1087963 147.167656,17.5075075 146.740085,17.087525 C146.312084,16.6688564 145.5366,16.459522 144.414925,16.459522 C143.14513,16.459522 141.971785,16.5479855 140.894461,16.7231607 C139.815846,16.8992117 138.716131,17.1352603 137.594887,17.4326201 L137.594887,12.8110611 C138.007819,12.7033283 138.495241,12.6017267 139.056293,12.5066942 C139.616915,12.4125375 140.200358,12.324512 140.805761,12.2434935 C141.410302,12.162037 142.030345,12.1011637 142.665458,12.0608734 C143.300141,12.0201451 143.883583,12 144.414925,12 C146.304333,12 147.82516,12.1418919 148.976975,12.4261136 C150.12836,12.7094595 151.020963,13.1491491 151.656076,13.7434309 C152.290758,14.3381507 152.71919,15.0953453 152.940511,16.0137012 C153.161832,16.9329329 153.272492,18.0142017 153.272492,19.2566316 L153.272492,27.2835961 C153.272492,27.6895646 153.390473,28.0070696 153.627295,28.2361111 C153.862825,28.4664665 154.320537,28.5812062 155,28.5812062 L155,32.6351977 L152.43156,32.6351977 Z" id="Fill-8"></path>
                <path d="M170.990142,22.7041256 C170.990142,21.5062945 170.93086,20.5053067 170.813584,19.7011622 C170.695449,18.8983418 170.496552,18.2508775 170.217323,17.7605347 C169.936806,17.2706332 169.576387,16.9232887 169.134776,16.7189424 C168.693165,16.5141548 168.13299,16.4126437 167.455538,16.4126437 C166.807298,16.4126437 166.262588,16.5141548 165.820977,16.7189424 C165.378937,16.9232887 165.025391,17.2706332 164.760338,17.7605347 C164.494856,18.2508775 164.302833,18.8983418 164.185987,19.7011622 C164.067851,20.5053067 164.008999,21.5062945 164.008999,22.7041256 C164.008999,23.8481116 164.060119,24.7948131 164.163648,25.5437885 C164.266748,26.2936466 164.450609,26.8921208 164.716091,27.3414178 C164.981144,27.7907148 165.33469,28.1115782 165.77673,28.3013598 C166.218341,28.4924655 166.777657,28.5877977 167.455538,28.5877977 C168.13299,28.5877977 168.699609,28.4924655 169.156685,28.3013598 C169.613331,28.1115782 169.97375,27.7907148 170.239232,27.3414178 C170.504285,26.8921208 170.695449,26.2936466 170.813584,25.5437885 C170.93086,24.7948131 170.990142,23.8481116 170.990142,22.7041256 M177,22.0915281 C177,24.2431223 176.793371,26.0208907 176.380972,27.423068 C175.968143,28.8265694 175.365009,29.9427503 174.569423,30.7738173 C173.773836,31.6044429 172.779782,32.1830563 171.586832,32.5096572 C170.394311,32.8366995 169.016641,33 167.455538,33 C165.894006,33 164.524068,32.8366995 163.346153,32.5096572 C162.167808,32.1830563 161.181058,31.6044429 160.385901,30.7738173 C159.590744,29.9427503 158.994054,28.8265694 158.59626,27.423068 C158.198897,26.0208907 158,24.2431223 158,22.0915281 C158,18.6048423 158.743607,16.0516172 160.231251,14.4309703 C161.718465,12.8107648 164.126704,12 167.455538,12 C170.783943,12 173.206358,12.8107648 174.724072,14.4309703 C176.240928,16.0516172 177,18.6048423 177,22.0915281" id="Fill-10"></path>
                <path d="M60.024927,27.6660605 C59.5449888,28.3948147 58.6748,28.7587627 57.4152356,28.7587627 C56.99436,28.7587627 56.5896719,28.7523249 56.1998588,28.7390202 C55.8096082,28.7257155 55.4644202,28.7059731 55.1651697,28.6793637 C54.8344192,28.6531834 54.5049812,28.6394496 54.1746683,28.6394496 L54.1746683,22.8866685 L54.1746683,20.7729377 L56.8749223,20.7729377 C57.3850481,20.7729377 57.8719863,20.8325943 58.337487,20.9514782 C58.8021127,21.0707914 59.2146758,21.2832374 59.5751764,21.5870996 C59.9348019,21.8922494 60.2200523,22.2896737 60.4296151,22.7793725 C60.4388027,22.8008317 60.4449277,22.8261535 60.4536777,22.8480419 C60.6457405,23.3287279 60.7450531,23.9321605 60.7450531,24.6664941 C60.7450531,25.9377369 60.5044278,26.9377354 60.024927,27.6660605 L60.024927,27.6660605 Z M54.1746683,9.88711714 C54.4747937,9.86093692 54.7893567,9.83432752 55.1201072,9.80728893 C55.4193576,9.7815379 55.7501081,9.76136626 56.1097337,9.74806155 C56.4697967,9.73475685 56.8302972,9.72788991 57.1899228,9.72788991 C58.0898616,9.72788991 58.7942377,10.0060011 59.304801,10.5622234 C59.8144892,11.1184458 60.0699896,11.9004188 60.0699896,12.9064259 C60.0699896,14.124879 59.7996142,14.9986975 59.2597384,15.5283104 C58.7198626,16.0583525 57.8199237,16.323159 56.5599218,16.323159 L54.1746683,16.323159 L54.1746683,9.88711714 Z M66.5721244,21.8257259 C66.2868739,21.0446112 65.9202484,20.3952559 65.4696227,19.8789477 C65.019872,19.3626394 64.5023088,18.9647859 63.9173704,18.687104 C63.332432,18.4085636 62.7396186,18.243757 62.1398052,18.1905382 C62.6193059,18.0579203 63.0992441,17.8729421 63.5800574,17.6343158 C64.0595581,17.3961188 64.4869962,17.0579218 64.8623718,16.6210126 C65.2373099,16.1841034 65.5444353,15.634748 65.7850607,14.9720881 C66.0243735,14.3107157 66.1446862,13.5021332 66.1446862,12.5484865 C66.1446862,11.2244542 65.9718735,10.0854001 65.6275604,9.13175347 C65.2823724,8.17853601 64.7123091,7.3974213 63.9173704,6.78755097 C63.1219942,6.17896819 62.0947426,5.72875427 60.8351782,5.43690922 C59.5751764,5.14592253 58.029049,5 56.1998588,5 C55.4495452,5 54.6025439,5.01373388 53.657105,5.03948492 C52.7125411,5.06609432 51.8191647,5.10600842 50.9800385,5.15879805 C49.9899745,5.21244603 49.000348,5.27811117 48.0098465,5.35751019 L48.0098465,30.4081164 C47.996284,31.4411621 47.997159,32.4119761 48.0098465,33.1694857 C48.0212215,33.8669095 48.0378465,34.3879388 48.0527216,34.6072518 C48.0658466,34.8021013 48.1253467,34.9055346 48.3073469,34.9780667 C48.3887221,35.0106846 48.5921599,35.0355773 48.7868477,34.831715 C49.5354113,34.0051068 50.5705378,33.3604725 52.1556027,33.426996 C52.3026029,33.4334338 52.5266033,33.4415883 52.8013537,33.4506011 C52.1879778,33.4278544 51.6034769,33.4003866 51.0561636,33.3669103 C51.0544136,33.3669103 51.0531011,33.3660519 51.0513511,33.3660519 C51.0574761,33.3660519 51.0636011,33.3669103 51.0701636,33.3669103 C51.6174769,33.4003866 52.2019778,33.4278544 52.8149162,33.4506011 C52.996479,33.4566097 53.2012293,33.4634767 53.4217296,33.4703436 C53.5901674,33.4754938 53.7533551,33.4819316 53.9274804,33.4862234 C53.9738554,33.487511 54.0176055,33.4879401 54.0635431,33.4887985 C55.0487946,33.5128328 56.0021085,33.5261375 56.9204224,33.5261375 C58.3597995,33.5261375 59.6941765,33.4068244 60.9248659,33.1686273 C62.1546802,32.9300011 63.2195568,32.4866541 64.1199332,31.8372988 C65.019872,31.188802 65.7246856,30.2883741 66.2348114,29.1360153 C66.5008118,28.5347287 66.695937,27.8355881 66.8232497,27.0428854 C66.9400624,26.3171354 67,25.513274 67,24.62658 C67,23.5407447 66.8573748,22.6072698 66.5721244,21.8257259 L66.5721244,21.8257259 Z" id="Fill-13"></path>
                <path d="M126.776096,24.9204383 C126.65638,25.7627206 126.440021,26.4236141 126.126584,26.9026989 C125.813147,27.3826235 125.38783,27.7059322 124.850634,27.8743047 C124.313002,28.043517 123.626052,28.1270734 122.79109,28.1270734 C122.492019,28.1270734 122.193383,28.1207752 121.895182,28.107339 C121.596546,28.0947425 121.283109,28.0750081 120.954871,28.0489754 L120.954871,19.7701718 C120.954871,19.0706492 121.238706,18.4097557 121.80594,17.7879112 C122.372303,17.1660667 123.148931,16.8549345 124.134081,16.8549345 C124.671713,16.8549345 125.119232,16.9200161 125.477508,17.0493396 C125.835349,17.1795029 126.126584,17.4184154 126.350779,17.7681767 C126.574538,18.1183579 126.731257,18.6041608 126.820935,19.2260053 C126.910612,19.8478498 126.955016,20.651503 126.955016,21.6361252 C126.955016,22.9835249 126.894505,24.0785759 126.776096,24.9204383 M132.552046,17.030025 C132.25341,15.9026432 131.805891,15.0024173 131.209055,14.3289273 C130.611348,13.6550175 129.849956,13.1692146 128.925317,12.8710987 C127.999371,12.5734027 126.924978,12.4239249 125.701703,12.4239249 C124.745719,12.4239249 123.872448,12.5473701 123.08189,12.7934206 C122.290897,13.0394712 121.581745,13.3703378 120.954871,13.7847609 L120.954871,5 L115,5 L115,32.0139165 C115.011319,32.6962239 115.027861,33.401205 115.042662,33.6157644 C115.055722,33.8063906 115.114492,33.9075821 115.296024,33.9785421 C115.376995,34.0104531 115.579423,34.0348062 115.773145,33.8353625 C116.517994,33.0266707 117.547983,32.3955888 119.125181,32.4610903 C119.234014,32.465709 119.385944,32.4711675 119.569653,32.4774657 C120.4377,32.5291111 121.371481,32.5580829 122.387975,32.5580829 C124.357841,32.5580829 126.02167,32.3695561 127.380768,31.9941821 C128.738561,31.6192279 129.827755,30.9902454 130.649221,30.109334 C131.469817,29.2288425 132.066654,28.0624116 132.440166,26.6108813 C132.813244,25.1601907 133,23.3723352 133,21.246895 C133,19.5631702 132.850247,18.1574069 132.552046,17.030025" id="Fill-15"></path>
            </g>
        </g>
    </g>
</svg>