<?xml version="1.0" encoding="UTF-8" standalone="no"?>
<svg width="150px" height="45px" viewBox="0 0 150 45" version="1.1" xmlns="http://www.w3.org/2000/svg" xmlns:xlink="http://www.w3.org/1999/xlink">
    <!-- Generator: Sketch 40.3 (33839) - http://www.bohemiancoding.com/sketch -->
    <title>label-google-play</title>
    <desc>Created with Sketch.</desc>
    <defs>
        <linearGradient x1="50%" y1="0%" x2="50%" y2="38.9125982%" id="linearGradient-1">
            <stop stop-color="#FBDA09" offset="0%"></stop>
            <stop stop-color="#FFBC00" offset="100%"></stop>
        </linearGradient>
        <path d="M24.8776334,12.6622288 C26.704269,13.6987319 26.7036319,15.3796212 24.8776334,16.4157929 L4.29776582,28.0939379 C2.47113029,29.130471 0.990349612,28.2674521 0.990349612,26.1553733 L0.990349612,2.92304209 C0.990349612,0.815869278 2.47176732,-0.051718593 4.29776582,0.984422961 L24.8776334,12.6622288 L24.8776334,12.6622288 L24.8776334,12.6622288 Z" id="path-2"></path>
        <linearGradient x1="0%" y1="52.1063354%" x2="69.3064856%" y2="47.2869125%" id="linearGradient-4">
            <stop stop-color="#01E2FF" offset="0%"></stop>
            <stop stop-color="#01C4FF" offset="100%"></stop>
        </linearGradient>
        <path d="M24.8776334,12.6622288 C26.704269,13.6987319 26.7036319,15.3796212 24.8776334,16.4157929 L4.29776582,28.0939379 C2.47113029,29.130471 0.990349612,28.2674521 0.990349612,26.1553733 L0.990349612,2.92304209 C0.990349612,0.815869278 2.47176732,-0.051718593 4.29776582,0.984422961 L24.8776334,12.6622288 L24.8776334,12.6622288 L24.8776334,12.6622288 Z" id="path-5"></path>
        <linearGradient x1="32.4558422%" y1="20.1019903%" x2="69.9652773%" y2="83.6214476%" id="linearGradient-7">
            <stop stop-color="#28D781" offset="0%"></stop>
            <stop stop-color="#02F076" offset="100%"></stop>
        </linearGradient>
        <path d="M24.8776334,12.6622288 C26.704269,13.6987319 26.7036319,15.3796212 24.8776334,16.4157929 L4.29776582,28.0939379 C2.47113029,29.130471 0.990349612,28.2674521 0.990349612,26.1553733 L0.990349612,2.92304209 C0.990349612,0.815869278 2.47176732,-0.051718593 4.29776582,0.984422961 L24.8776334,12.6622288 L24.8776334,12.6622288 L24.8776334,12.6622288 Z" id="path-8"></path>
        <linearGradient x1="61.203246%" y1="17.4301299%" x2="31.7495159%" y2="91.1838038%" id="linearGradient-10">
            <stop stop-color="#F2414E" offset="0%"></stop>
            <stop stop-color="#E02554" offset="100%"></stop>
        </linearGradient>
    </defs>
    <g id="Page-1" stroke="none" stroke-width="1" fill="none" fill-rule="evenodd">
        <g id="label-google-play">
            <g id="Page-1">
                <g id="label-google-play">
                    <g id="Screen">
                        <g id="02-1-1__單集">
                            <g id="Download-App">
                                <g id="label-google-play">
                                    <rect id="background" fill="#000000" x="0" y="0" width="150" height="45" rx="6.05245461"></rect>
                                    <g id="get-it-on" transform="translate(45.906841, 7.467273)" fill="#FFFFFF">
                                        <path d="M33.423402,7.26545455 C35.4250058,7.26545455 37.0476263,5.63902715 37.0476263,3.63272727 C37.0476263,1.6264274 35.4250058,0 33.423402,0 C31.4217982,0 29.7991777,1.6264274 29.7991777,3.63272727 C29.7991777,5.63902715 31.4217982,7.26545455 33.423402,7.26545455 L33.423402,7.26545455 L33.423402,7.26545455 Z M33.423402,6.15545455 C34.8134047,6.15545455 35.9402245,5.02599107 35.9402245,3.63272727 C35.9402245,2.23946347 34.8134047,1.11 33.423402,1.11 C32.0333994,1.11 30.9065796,2.23946347 30.9065796,3.63272727 C30.9065796,5.02599107 32.0333994,6.15545455 33.423402,6.15545455 L33.423402,6.15545455 L33.423402,6.15545455 Z" id="o"></path>
                                        <polygon id="e" points="8.85921499 4.03636364 8.85921499 6.25636364 11.778729 6.25636364 11.778729 7.06363636 7.75181312 7.06363636 7.75181312 6.25636364 8.85921499 6.25636364 8.85921499 7.06363636 7.75181312 7.06363636 7.75181312 0.756818182 7.75181312 0.302727273 11.778729 0.302727273 11.778729 1.11 8.85921499 1.11 8.85921499 3.22909091 11.4767103 3.22909091 11.4767103 4.03636364"></polygon>
                                        <polygon id="t" points="15.704972 1.11 15.704972 7.06363636 14.5975702 7.06363636 14.5975702 1.11 12.8861309 1.11 12.8861309 0.302727273 17.4164113 0.302727273 17.4164113 1.11"></polygon>
                                        <polygon id="t" points="25.570916 1.11 25.570916 7.06363636 24.4635141 7.06363636 24.4635141 1.11 22.7520749 1.11 22.7520749 0.302727273 27.2823553 0.302727273 27.2823553 1.11"></polygon>
                                        <rect id="i" x="20.637944" y="0.302727273" width="1.10740187" height="6.76090909"></rect>
                                        <polygon id="n" points="38.6080562 0.302727273 37.9536824 0.302727273 37.9536824 7.06363636 39.0610843 7.06363636 39.0610843 1.78682927 42.282617 7.06363636 42.8363179 7.06363636 43.3900189 7.06363636 43.3900189 0.302727273 42.282617 0.302727273 42.282617 5.24973392 39.2624301 0.302727273"></polygon>
                                        <g id="g" transform="translate(0.000000, 0.100909)">
                                            <polygon id="Rectangle-1" points="3.60240465 3.24625668 6.63442857 3.24625668 6.60440853 4.20811052 3.60240465 4.20811052"></polygon>
                                            <path d="M6.88763047,3.24625668 C6.88773095,3.25815005 6.88778128,3.2700676 6.88778128,3.28200919 C7.22093335,5.73137842 5.55487983,7.14175296 3.55737459,7.12372995 C1.59269275,7.12090929 0,5.52902868 0,3.56186497 C0,1.59470127 1.59269086,0 3.55737459,0 C4.58432429,0 5.44762571,0.359242539 6.03777479,0.983109716 L5.34396281,1.67779747 C4.91121146,1.23477897 4.29657548,0.991911765 3.58739463,0.991911765 C2.16983801,0.991911765 1.02068132,2.14251901 1.02068132,3.56186497 C1.02068132,4.98121094 2.16983801,6.13181818 3.58739463,6.13181818 C5.00495125,6.13181818 6.0113955,5.31127186 6.00928471,3.56186497 C6.01168224,3.45375277 6.00916781,3.3485149 6.00195677,3.24625668 L6.88763047,3.24625668 L6.88763047,3.24625668 L6.88763047,3.24625668 Z" id="Oval-1"></path>
                                        </g>
                                    </g>
                                    <g id="googleplay" transform="translate(45.403477, 19.374545)" fill="#FFFFFF">
                                        <g id="big-P" transform="translate(62.819888, 0.504545)">
                                            <path d="M0.503364488,3.54659306e-07 L6.21080236,0 C6.21080236,0 9.49641701,0.560321378 9.49641676,4.34209786 C9.4964165,8.12387435 6.21080236,8.68419573 6.21080236,8.68419573 L0.503364488,8.68419608 L0.503364488,3.54659306e-07 L0.503364488,3.54659306e-07 L0.503364488,3.54659306e-07 Z M1.61076636,2.10061574 L5.48525404,2.10061574 C5.48525404,2.10061574 7.24844863,2.10061574 7.24844863,4.43076242 C7.24844863,6.76090909 5.48525404,6.76090909 5.48525404,6.76090909 L1.61076636,6.76090909 L1.61076636,2.10061574 L1.61076636,2.10061574 L1.61076636,2.10061574 Z" id="Combined-Shape"></path>
                                            <rect id="Rectangle-6" x="0" y="0" width="2.01345795" height="14.1272727"></rect>
                                        </g>
                                        <rect id="y" x="73.4912153" y="0.504545455" width="2.01345795" height="14.1272727"></rect>
                                        <path d="M82.9673557,13.6217316 L82.9673557,14.6272852 L84.9808137,14.6272852 L84.9808137,8.49515202 C84.9809527,8.49123467 84.9810226,8.48729182 84.9810226,8.48332331 C84.9810226,7.66801924 84.3849271,5.24727273 80.8835054,5.24727273 C78.0675063,5.24727273 77.1290158,7.18652077 77.1290158,7.18652077 L78.8061437,8.18004173 C78.8061437,8.18004173 79.211007,7.18652077 81.0443461,7.18652077 C82.3787983,7.18652077 82.8239188,8.19662108 82.9673557,8.74635645 L82.9673557,9.16144053 C82.3824418,8.87648952 81.1167995,8.42770655 79.309754,8.697053 C76.7577845,9.07743297 76.9160199,11.4704272 76.9160199,11.6683034 C76.9160199,11.8661797 76.9176914,14.8005258 80.1258042,14.5996928 C81.5261484,14.5120291 82.4127784,14.0803722 82.9673557,13.6217316 L82.9673557,13.6217316 L82.9673557,13.6217316 Z M82.8235232,10.5957502 C82.8235232,10.5957502 78.944569,9.54778372 78.8097322,11.7320122 C78.6748954,13.9162406 82.531041,12.8674365 82.8755802,11.3190634 C82.8755801,10.8266881 82.8235232,10.5957502 82.8235232,10.5957502 L82.8235232,10.5957502 L82.8235232,10.5957502 Z" id="a"></path>
                                        <polygon id="y" points="88.7589303 14.0958315 86.8807107 18.5672727 88.8941686 18.5672727 94.3415162 5.59887784 92.3280582 5.59887784 89.7656593 11.6991313 87.1827294 5.55 85.1692714 5.55"></polygon>
                                        <path d="M58.3122941,8.85231621 C58.3122941,8.85231621 57.4294969,5.24727273 54.0538333,5.24727273 C50.6781697,5.24727273 49.5310656,8.29428119 49.5310656,10.0937488 C49.5310656,11.9614352 50.9762491,14.8373076 54.2574475,14.8373076 C56.9275585,14.8373076 58.2312889,12.7238311 58.2312889,12.7238311 L56.615652,11.6271069 C56.615652,11.6271069 55.7693553,12.9666931 54.2701734,12.9590358 C52.3556005,12.9492568 51.9443341,11.4902305 51.9443341,11.4902305 L58.3122941,8.85231621 L58.3122941,8.85231621 L58.3122941,8.85231621 Z M55.88942,8.10503361 C55.88942,8.10503361 55.0882422,6.88320162 53.8595188,7.10853444 C51.260379,7.58518486 51.5874587,9.86503006 51.5874587,9.86503006 L55.88942,8.10503361 L55.88942,8.10503361 L55.88942,8.10503361 Z" id="e"></path>
                                        <rect id="i" x="46.5108787" y="0.504545455" width="2.13011753" height="14.0975936"></rect>
                                        <path d="M43.1020839,5.55365925 L43.1020839,6.4334298 C43.1020839,6.4334298 42.2460848,5.19857522 40.4651947,5.24876207 C38.2418355,5.31141805 35.9402245,7.03390657 35.9402245,10.0453092 C35.9402245,13.0567118 38.3845123,14.8231358 40.4413948,14.823133 C42.3385307,14.8231303 43.1023286,13.6248987 43.1023286,13.6248987 L43.1023286,14.5902285 C43.1023286,15.2792856 42.8446294,17.2922896 40.6371777,17.2922922 C38.6987438,17.2922945 38.1471868,15.5528548 38.1471868,15.5528548 L36.3387649,16.3151895 C36.3387649,16.3151895 37.3651566,19.137584 40.5432019,19.137584 C43.7212472,19.137584 45.07117,16.7385456 45.07117,14.4658593 L45.07117,5.57070994 L43.1020839,5.55365925 L43.1020839,5.55365925 L43.1020839,5.55365925 Z M40.6095233,13.0155327 C42.0454617,13.0155327 43.2095197,11.6970871 43.2095197,10.070702 C43.2095197,8.44431694 42.0454617,7.12587134 40.6095233,7.12587134 C39.173585,7.12587134 38.0095269,8.44431694 38.0095269,10.070702 C38.0095269,11.6970871 39.173585,13.0155327 40.6095233,13.0155327 L40.6095233,13.0155327 L40.6095233,13.0155327 Z" id="g"></path>
                                        <path d="M30.2630076,14.8336364 C32.9099783,14.8336364 35.055772,12.6876558 35.055772,10.0404545 C35.055772,7.39325332 32.9099783,5.24727273 30.2630076,5.24727273 C27.6160368,5.24727273 25.4702431,7.39325332 25.4702431,10.0404545 C25.4702431,12.6876558 27.6160368,14.8336364 30.2630076,14.8336364 L30.2630076,14.8336364 L30.2630076,14.8336364 Z M30.2316823,12.9539572 C31.719522,12.9539572 32.9256545,11.6495376 32.9256545,10.0404545 C32.9256545,8.43137145 31.719522,7.12695187 30.2316823,7.12695187 C28.7438425,7.12695187 27.5377101,8.43137145 27.5377101,10.0404545 C27.5377101,11.6495376 28.7438425,12.9539572 30.2316823,12.9539572 L30.2316823,12.9539572 L30.2316823,12.9539572 Z" id="o"></path>
                                        <path d="M19.8936991,14.8336364 C22.5406698,14.8336364 24.6864635,12.6876558 24.6864635,10.0404545 C24.6864635,7.39325332 22.5406698,5.24727273 19.8936991,5.24727273 C17.2467284,5.24727273 15.1009346,7.39325332 15.1009346,10.0404545 C15.1009346,12.6876558 17.2467284,14.8336364 19.8936991,14.8336364 L19.8936991,14.8336364 L19.8936991,14.8336364 Z M19.8623738,12.9539572 C21.3502136,12.9539572 22.556346,11.6495376 22.556346,10.0404545 C22.556346,8.43137145 21.3502136,7.12695187 19.8623738,7.12695187 C18.3745341,7.12695187 17.1684017,8.43137145 17.1684017,10.0404545 C17.1684017,11.6495376 18.3745341,12.9539572 19.8623738,12.9539572 L19.8623738,12.9539572 L19.8623738,12.9539572 Z" id="o"></path>
                                        <g id="big-g">
                                            <polygon id="Rectangle-1" points="7.51806188 6.76684492 13.845764 6.76684492 13.7831135 8.77183601 7.51806188 8.77183601"></polygon>
                                            <path d="M14.3741853,6.76684492 C14.374395,6.79163672 14.3745001,6.81647894 14.3745001,6.84137126 C15.0697739,11.9470987 11.5927927,14.8870343 7.42408611,14.8494652 C3.32388052,14.8435856 0,11.5252992 0,7.42473262 C0,3.32416602 3.32387657,0 7.42408611,0 C9.56728547,0 11.368958,0.748843603 12.6005735,2.04929913 L11.152618,3.49738065 C10.2494848,2.57390547 8.96676621,2.06764706 7.48673663,2.06764706 C4.52835759,2.06764706 2.13011753,4.46609596 2.13011753,7.42473262 C2.13011753,10.3833693 4.52835759,12.7818182 7.48673663,12.7818182 C10.4451157,12.7818182 12.545521,11.0713836 12.5411159,7.42473262 C12.5461195,7.19937197 12.5408719,6.98000289 12.5258228,6.76684492 L14.3741853,6.76684492 L14.3741853,6.76684492 L14.3741853,6.76684492 Z" id="Oval-1"></path>
                                        </g>
                                    </g>
                                    <g id="logo_play" transform="translate(10.000000, 8.000000)">
                                        <g id="yellow" fill="url(#linearGradient-1)">
                                            <path d="M24.8776334,12.6622288 C26.704269,13.6987319 26.7036319,15.3796212 24.8776334,16.4157929 L4.29776582,28.0939379 C2.47113029,29.130471 0.990349612,28.2674521 0.990349612,26.1553733 L0.990349612,2.92304209 C0.990349612,0.815869278 2.47176732,-0.051718593 4.29776582,0.984422961 L24.8776334,12.6622288 L24.8776334,12.6622288 L24.8776334,12.6622288 Z" id="path-2"></path>
                                        </g>
                                        <g id="blue-Clipped">
                                            <mask id="mask-3" fill="white">
                                                <use xlink:href="#path-2"></use>
                                            </mask>
                                            <g id="path-2"></g>
                                            <polygon id="blue" fill="url(#linearGradient-4)" mask="url(#mask-3)" points="1 0.290049242 15.0727467 14.3098893 0.81822949 28.8838621"></polygon>
                                        </g>
                                        <g id="green-Clipped">
                                            <mask id="mask-6" fill="white">
                                                <use xlink:href="#path-5"></use>
                                            </mask>
                                            <g id="path-2"></g>
                                            <polygon id="green" fill="url(#linearGradient-7)" mask="url(#mask-6)" points="-1.89387973 -2.5961369 15.0710765 14.3139901 20.1149557 9.49092396"></polygon>
                                        </g>
                                        <g id="red-Clipped">
                                            <mask id="mask-9" fill="white">
                                                <use xlink:href="#path-8"></use>
                                            </mask>
                                            <g id="path-2"></g>
                                            <polygon id="red" fill="url(#linearGradient-10)" mask="url(#mask-9)" points="15.0733875 14.3107638 22.7950609 22.1121092 -0.272704286 29.9134545"></polygon>
                                        </g>
                                    </g>
                                </g>
                            </g>
                        </g>
                    </g>
                </g>
            </g>
        </g>
    </g>
</svg>