<?xml version="1.0" encoding="UTF-8" standalone="no"?>
<svg width="150px" height="45px" viewBox="0 0 150 45" version="1.1" xmlns="http://www.w3.org/2000/svg" xmlns:xlink="http://www.w3.org/1999/xlink">
    <!-- Generator: Sketch 40.3 (33839) - http://www.bohemiancoding.com/sketch -->
    <title>label-app-store</title>
    <desc>Created with Sketch.</desc>
    <defs></defs>
    <g id="Page-1" stroke="none" stroke-width="1" fill="none" fill-rule="evenodd">
        <g id="label-app-store">
            <g id="Screen">
                <g id="02-1-1__單集">
                    <g id="Download-App">
                        <g id="label-app-store">
                            <path d="M0,6.0455361 C0,2.70667871 2.71541354,6.0273887e-15 6.04259356,5.88540396e-15 L143.957406,-2.46519033e-32 C147.294639,-1.42413709e-16 150,2.71361156 150,6.0455361 L150,38.9544639 C150,42.2933213 147.284586,45 143.957406,45 L6.04259356,45 C2.70536129,45 0,42.2863884 0,38.9544639 L0,6.0455361 Z" id="background" fill="#000000"></path>
                            <g id="Logo" transform="translate(14.071856, 6.900000)" fill="#FFFFFF">
                                <path d="M19.2819334,15.3643242 C19.2498018,11.7882511 22.205911,10.04848 22.3410854,9.9663734 C20.6669171,7.52203927 18.0720116,7.18806534 17.1601384,7.16254573 C14.980728,6.93286931 12.8666889,8.46848367 11.756486,8.46848367 C10.6241233,8.46848367 8.91339144,7.18473669 7.07191712,7.22246132 C4.70193301,7.2590764 2.48263514,8.63380631 1.26606545,10.7685766 C-1.24463299,15.1213332 0.627864966,21.5178771 3.03330465,25.0362537 C4.23657849,26.7593816 5.64261394,28.6833378 7.48187229,28.6156553 C9.2823511,28.5402061 9.95489919,27.4650541 12.1287696,27.4650541 C14.2815883,27.4650541 14.9131408,28.6156553 16.7900707,28.572383 C18.7224,28.5402061 19.9389697,26.8414882 21.10014,25.1028265 C22.4906636,23.1267216 23.0490891,21.1816841 23.0712488,21.0818248 C23.0258213,21.0674006 19.318497,19.6505079 19.2819334,15.3643242" id="Fill-5"></path>
                                <path d="M15.7758259,4.79621316 C16.7459388,3.58622876 17.4104606,1.94007433 17.2259947,0.269565217 C15.8202755,0.331558929 14.0622931,1.23710992 13.0510642,2.42163262 C12.1554044,3.4644554 11.3553113,5.17371058 11.562002,6.78111895 C13.1410747,6.89846419 14.7623746,5.98737804 15.7758259,4.79621316" id="Fill-6"></path>
                                <path d="M41.1340002,22.1926582 L39.8825458,18.3337175 C39.7501697,17.9382705 39.5021036,17.0096366 39.1350103,15.5478156 L39.0916266,15.5478156 C38.9459016,16.1776427 38.7111844,17.1051659 38.3885873,18.3337175 L37.159381,22.1926582 L41.1340002,22.1926582 L41.1340002,22.1926582 L41.1340002,22.1926582 Z M45.4612514,28.3565217 L42.9349821,28.3565217 L41.5511516,24.0143804 L36.7422295,24.0143804 L35.4240308,28.3565217 L32.9645058,28.3565217 L37.7300442,13.573913 L40.6734649,13.573913 L45.4612514,28.3565217 L45.4612514,28.3565217 L45.4612514,28.3565217 Z" id="Fill-7"></path>
                                <path d="M55.2037089,22.9899615 C55.2037089,21.9526645 54.9709728,21.0975053 54.503284,20.4244839 C53.9923729,19.7236976 53.3074637,19.3716385 52.4463401,19.3716385 C51.8633916,19.3716385 51.3336399,19.5671035 50.8604098,19.953591 C50.3860714,20.3411892 50.0757566,20.8487317 49.9305736,21.4784398 C49.857428,21.7705267 49.8208552,22.0115261 49.8208552,22.2003275 L49.8208552,23.9772816 C49.8208552,24.7524779 50.0580244,25.4066192 50.5323627,25.9397054 C51.0067011,26.4739023 51.6228976,26.7404454 52.3809524,26.7404454 C53.2708909,26.7404454 53.9646662,26.3961605 54.4600616,25.709812 C54.9554571,25.0223528 55.2037089,24.1161062 55.2037089,22.9899615 L55.2037089,22.9899615 L55.2037089,22.9899615 Z M57.6108652,22.903335 C57.6108652,24.7158282 57.1221194,26.1484975 56.1446277,27.2002323 C55.2690967,28.136465 54.1829948,28.6040261 52.8841057,28.6040261 C51.4843642,28.6040261 50.4780576,28.0998153 49.8651859,27.0902832 L49.8208552,27.0902832 L49.8208552,32.7043478 L47.4580295,32.7043478 L47.4580295,21.2141179 C47.4580295,20.074646 47.4281063,18.9051881 47.3704764,17.705744 L49.4484774,17.705744 L49.5803612,19.3949611 L49.6246919,19.3949611 C50.4115616,18.1222176 51.6084902,17.4869565 53.2121528,17.4869565 C54.4678195,17.4869565 55.5140237,17.9833931 56.352982,18.9773768 C57.1919402,19.9724712 57.6108652,21.2807537 57.6108652,22.903335 L57.6108652,22.903335 L57.6108652,22.903335 Z" id="Fill-8"></path>
                                <path d="M67.4401057,22.9899615 C67.4401057,21.9526645 67.2062613,21.0975053 66.7396808,20.4244839 C66.2287696,19.7236976 65.5438605,19.3716385 64.6827369,19.3716385 C64.0986801,19.3716385 63.5700367,19.5671035 63.0956983,19.953591 C62.6224682,20.3411892 62.3132617,20.8487317 62.1669704,21.4784398 C62.094933,21.7705267 62.057252,22.0115261 62.057252,22.2003275 L62.057252,23.9772816 C62.057252,24.7524779 62.2944211,25.4066192 62.766543,25.9397054 C63.2408813,26.4739023 63.8581861,26.7404454 64.6173492,26.7404454 C65.5072877,26.7404454 66.1999547,26.3961605 66.6953501,25.709812 C67.1918538,25.0223528 67.4401057,24.1161062 67.4401057,22.9899615 L67.4401057,22.9899615 L67.4401057,22.9899615 Z M69.847262,22.903335 C69.847262,24.7158282 69.3585162,26.1484975 68.3799162,27.2002323 C67.5054934,28.136465 66.4182833,28.6040261 65.1205025,28.6040261 C63.7196527,28.6040261 62.7133461,28.0998153 62.1015826,27.0902832 L62.057252,27.0902832 L62.057252,32.7043478 L59.6944263,32.7043478 L59.6944263,21.2141179 C59.6944263,20.074646 59.6645031,18.9051881 59.6068732,17.705744 L61.6859824,17.705744 L61.816758,19.3949611 L61.8610887,19.3949611 C62.6479584,18.1222176 63.8426704,17.4869565 65.4485495,17.4869565 C66.7019997,17.4869565 67.7504205,17.9833931 68.5893787,18.9773768 C69.4272287,19.9724712 69.847262,21.2807537 69.847262,22.903335 L69.847262,22.903335 L69.847262,22.903335 Z" id="Fill-9"></path>
                                <path d="M83.4721861,24.2549688 C83.4721861,25.5110533 83.038429,26.5339125 82.1676036,27.3235465 C81.2106891,28.1875905 79.878514,28.6173913 78.1666634,28.6173913 C76.5872577,28.6173913 75.3190976,28.3108667 74.3599757,27.6967069 L74.9052073,25.7231772 C75.9382776,26.3517747 77.0717854,26.6660735 78.3068343,26.6660735 C79.1931115,26.6660735 79.8829288,26.4650556 80.3784935,26.0619091 C80.8729545,25.6598732 81.1179776,25.121234 81.1179776,24.447102 C81.1179776,23.8473799 80.9159991,23.3420586 80.5076273,22.9322485 C80.1025666,22.5224385 79.4259938,22.1415039 78.4823238,21.7894449 C75.9106849,20.8243367 74.6248655,19.4105475 74.6248655,17.5502986 C74.6248655,16.3364168 75.076282,15.3402118 75.9769074,14.563905 C76.8753254,13.7875981 78.0739519,13.4 79.5727869,13.4 C80.9093769,13.4 82.0197068,13.6332252 82.9048803,14.1007863 L82.3166042,16.0310028 C81.4888234,15.5778795 80.5528793,15.3513178 79.5054608,15.3513178 C78.67768,15.3513178 78.0309073,15.5556675 77.5673501,15.9654776 C77.1755339,16.3308638 76.979074,16.7762129 76.979074,17.3037462 C76.979074,17.8879199 77.2031266,18.3710293 77.654543,18.7497427 C78.0463593,19.1018017 78.7582507,19.4816257 79.7902173,19.8914357 C81.0539626,20.4034206 81.9821807,21.0020321 82.5792866,21.6883806 C83.1752887,22.3758398 83.4721861,23.2321096 83.4721861,24.2549688" id="Fill-10"></path>
                                <path d="M91.369435,19.4941089 L88.7521359,19.4941089 L88.7521359,24.6821197 C88.7521359,26.0016717 89.2132261,26.660891 90.1376338,26.660891 C90.5619704,26.660891 90.9150274,26.624144 91.1934634,26.5517635 L91.2580606,28.3545944 C90.790288,28.5294212 90.1755012,28.6173913 89.4114726,28.6173913 C88.4736999,28.6173913 87.7408561,28.33121 87.2118276,27.7610744 C86.6861403,27.1887118 86.4199554,26.2288351 86.4199554,24.8803309 L86.4199554,19.4941089 L84.8607134,19.4941089 L84.8607134,17.7124353 L86.4199554,17.7124353 L86.4199554,15.755935 L88.7521359,15.0521739 L88.7521359,17.7124353 L91.369435,17.7124353 L91.369435,19.4941089" id="Fill-11"></path>
                                <path d="M100.63401,23.0299353 C100.63401,22.0469878 100.42347,21.2030318 99.9990664,20.4980672 C99.5037443,19.6463276 98.7956663,19.2215697 97.8781567,19.2215697 C96.9285122,19.2215697 96.207137,19.6463276 95.7118148,20.4980672 C95.2874112,21.2030318 95.0779797,22.060331 95.0779797,23.0744125 C95.0779797,24.058472 95.2874112,24.902428 95.7118148,25.6062807 C96.2226504,26.4569083 96.937377,26.8827781 97.8571028,26.8827781 C98.7590988,26.8827781 99.4671768,26.4502367 99.9780125,25.584042 C100.414605,24.8657343 100.63401,24.0128828 100.63401,23.0299353 L100.63401,23.0299353 L100.63401,23.0299353 Z M103.085134,22.953212 C103.085134,24.593311 102.618623,25.9398601 101.6856,26.9928593 C100.707144,28.0758806 99.4084474,28.6173913 97.7895085,28.6173913 C96.229299,28.6173913 94.9871153,28.0981193 94.0607409,27.0584633 C93.1343666,26.0199192 92.6711794,24.7089519 92.6711794,23.1288972 C92.6711794,21.475455 93.1476638,20.1211224 94.1039569,19.0681232 C95.0580339,18.0140121 96.3456499,17.4869565 97.9645888,17.4869565 C99.5259063,17.4869565 100.780279,18.0062286 101.728816,19.0458846 C102.633028,20.0555184 103.085134,21.3575902 103.085134,22.953212 L103.085134,22.953212 L103.085134,22.953212 Z" id="Fill-12"></path>
                                <path d="M110.808817,19.7867359 C110.573464,19.7434485 110.32361,19.7223598 110.059256,19.7223598 C109.222692,19.7223598 108.575749,20.0364706 108.120658,20.6646922 C107.723569,21.2196582 107.52614,21.9211353 107.52614,22.7680135 L107.52614,28.3565217 L105.149183,28.3565217 L105.170376,21.059828 C105.170376,19.8311332 105.140259,18.7134315 105.081142,17.7056131 L107.15359,17.7056131 L107.240593,19.7434485 L107.305287,19.7434485 C107.556256,19.0430813 107.953345,18.4792358 108.495439,18.0574616 C109.024147,17.6767549 109.597472,17.4869565 110.214299,17.4869565 C110.434036,17.4869565 110.632581,17.5024956 110.808817,17.5302439 L110.808817,19.7867359" id="Fill-13"></path>
                                <path d="M119.141578,21.9520534 C119.157106,21.2479762 119.002943,20.6408211 118.682419,20.1261318 C118.273169,19.4666165 117.644321,19.1368588 116.798093,19.1368588 C116.025064,19.1368588 115.396216,19.4588182 114.915984,20.1049649 C114.521152,20.6185402 114.287136,21.2346077 114.216155,21.9520534 L119.141578,21.9520534 L119.141578,21.9520534 L119.141578,21.9520534 Z M121.396338,22.5681209 C121.396338,22.9936865 121.368611,23.3524093 121.30983,23.6454035 L114.216155,23.6454035 C114.243882,24.7015192 114.586587,25.5092026 115.244272,26.0662257 C115.842066,26.5642043 116.616204,26.8137506 117.564467,26.8137506 C118.614765,26.8137506 119.57301,26.6444156 120.434766,26.3068597 L120.805198,27.956762 C119.798154,28.3968102 118.60922,28.6173913 117.237288,28.6173913 C115.586977,28.6173913 114.291572,28.1294391 113.348854,27.1535347 C112.409464,26.1787443 111.936996,24.8697402 111.936996,23.2276362 C111.936996,21.6144974 112.373973,20.2720718 113.252364,19.2025875 C114.170682,18.0584622 115.411743,17.4869565 116.973327,17.4869565 C118.507185,17.4869565 119.668391,18.0584622 120.456947,19.2025875 C121.082468,20.1116492 121.396338,21.2346077 121.396338,22.5681209 L121.396338,22.5681209 L121.396338,22.5681209 Z" id="Fill-14"></path>
                                <path d="M39.1098016,4.51513494 C39.1098016,3.66631416 38.8847215,3.01551449 38.4334469,2.56162343 C37.9832865,2.10884486 37.3258741,1.88189933 36.4612097,1.88189933 C36.0935045,1.88189933 35.7792837,1.90748632 35.5207757,1.95754784 L35.5207757,7.39645316 C35.6645151,7.41870272 35.92748,7.42871502 36.3096706,7.42871502 C37.2033057,7.42871502 37.8930316,7.18063241 38.3799625,6.68446719 C38.8657791,6.18830197 39.1098016,5.46519122 39.1098016,4.51513494 L39.1098016,4.51513494 L39.1098016,4.51513494 Z M40.341057,4.48287307 C40.341057,5.79225977 39.9488381,6.77791535 39.163286,7.4398398 C38.4345611,8.05059027 37.4016437,8.35652174 36.061191,8.35652174 C35.3982073,8.35652174 34.8288213,8.32759731 34.3530331,8.27086093 L34.3530331,1.11540193 C34.9736749,1.0152789 35.6422299,0.965217391 36.3642692,0.965217391 C37.6389807,0.965217391 38.6016999,1.24222443 39.2501982,1.79623852 C39.9766946,2.42145119 40.341057,3.31699605 40.341057,4.48287307 L40.341057,4.48287307 L40.341057,4.48287307 Z" id="Fill-15"></path>
                                <path d="M45.6445705,5.69320862 C45.6445705,5.20976714 45.5403483,4.7942748 45.3319038,4.44784554 C45.0890882,4.02789752 44.7409416,3.81848047 44.2896815,3.81848047 C43.822899,3.81848047 43.4680999,4.02789752 43.2241755,4.44784554 C43.0168398,4.7942748 42.9126175,5.21645066 42.9126175,5.71437311 C42.9126175,6.19892851 43.0168398,6.61442085 43.2241755,6.96196404 C43.4758611,7.37968421 43.8262252,7.58910126 44.278594,7.58910126 C44.7232016,7.58910126 45.0702395,7.37634245 45.3219251,6.95082483 C45.5370221,6.59659812 45.6445705,6.17776403 45.6445705,5.69320862 L45.6445705,5.69320862 L45.6445705,5.69320862 Z M46.8497787,5.65533533 C46.8497787,6.46292767 46.620268,7.12459642 46.1612467,7.64368336 C45.6800504,8.17725127 45.0425208,8.44347826 44.2464404,8.44347826 C43.4791873,8.44347826 42.8682676,8.18839047 42.4125726,7.67598706 C41.9579862,7.16469756 41.7295843,6.51973761 41.7295843,5.74222112 C41.7295843,4.92794526 41.96353,4.26182082 42.4336388,3.74273388 C42.9037476,3.22364694 43.5357334,2.96521739 44.3318139,2.96521739 C45.1001757,2.96521739 45.7155304,3.2214191 46.1823129,3.73270859 C46.6258118,4.22951712 46.8497787,4.87113531 46.8497787,5.65533533 L46.8497787,5.65533533 L46.8497787,5.65533533 Z" id="Fill-16"></path>
                                <path d="M55.5280743,3.05217391 L53.8973197,8.26956522 L52.8370529,8.26956522 L52.1604279,6.00397336 C51.9890605,5.43840549 51.8497554,4.87726476 51.7414069,4.31833761 L51.7215062,4.31833761 C51.6208969,4.89165299 51.4815918,5.4539005 51.3024852,6.00397336 L50.5838476,8.26956522 L49.5114192,8.26956522 L47.9779571,3.05217391 L49.1686843,3.05217391 L49.7579672,5.53137555 C49.9005891,6.11907915 50.0188879,6.67689952 50.1128636,7.20705023 L50.1327643,7.20705023 C50.2190008,6.77097637 50.3616228,6.21536957 50.5628413,5.54244342 L51.3024852,3.05217391 L52.2455589,3.05217391 L52.9542461,5.48931767 C53.1256135,6.08366199 53.2649187,6.65587058 53.3721615,7.20705023 L53.4042238,7.20705023 C53.4827211,6.6702588 53.6010199,6.09805021 53.7591202,5.48931767 L54.3915213,3.05217391 L55.5280743,3.05217391" id="Fill-17"></path>
                                <path d="M61.6028812,8.26956522 L60.4363099,8.26956522 L60.4363099,5.29269157 C60.4363099,4.37537346 60.0845575,3.91671441 59.3788264,3.91671441 C59.0326397,3.91671441 58.7521283,4.04350718 58.536179,4.29599017 C58.3202298,4.54847315 58.2122551,4.84505797 58.2122551,5.18684717 L58.2122551,8.26956522 L57.0456839,8.26956522 L57.0456839,4.55839607 C57.0456839,4.10194211 57.031213,3.60689904 57.0033845,3.07216433 L58.028587,3.07216433 L58.0831308,3.88474059 L58.1154119,3.88474059 C58.2512151,3.6322576 58.4538066,3.4227739 58.7198472,3.25739203 C59.0359791,3.06224142 59.3899578,2.96521739 59.7773307,2.96521739 C60.2671126,2.96521739 60.674522,3.12177889 60.9984459,3.43600445 C61.4014028,3.82079293 61.6028812,4.39411674 61.6028812,5.15707843 L61.6028812,8.26956522" id="Fill-18"></path>
                                <polygon id="Fill-19" points="63.5988892 8.35652174 64.7270676 8.35652174 64.7270676 0.704347826 63.5988892 0.704347826"></polygon>
                                <path d="M70.3763429,5.69320862 C70.3763429,5.20976714 70.2720981,4.7942748 70.0647175,4.44784554 C69.8218493,4.02789752 69.4725183,3.81848047 69.0222694,3.81848047 C68.5542768,3.81848047 68.1994008,4.02789752 67.9565326,4.44784554 C67.749152,4.7942748 67.6449072,5.21645066 67.6449072,5.71437311 C67.6449072,6.19892851 67.749152,6.61442085 67.9565326,6.96196404 C68.2082727,7.37968421 68.5587127,7.58910126 69.0111796,7.58910126 C69.4558835,7.58910126 69.8018875,7.37634245 70.0536276,6.95082483 C70.2698801,6.59659812 70.3763429,6.17776403 70.3763429,5.69320862 L70.3763429,5.69320862 L70.3763429,5.69320862 Z M71.5829211,5.65533533 C71.5829211,6.46292767 71.3533607,7.12459642 70.89424,7.64368336 C70.4129395,8.17725127 69.7741628,8.44347826 68.9790189,8.44347826 C68.2104907,8.44347826 67.5994387,8.18839047 67.1447539,7.67598706 C66.6900691,7.16469756 66.4627267,6.51973761 66.4627267,5.74222112 C66.4627267,4.92794526 66.696723,4.26182082 67.1658247,3.74273388 C67.6360353,3.22364694 68.269267,2.96521739 69.063302,2.96521739 C69.8329391,2.96521739 70.4473181,3.2214191 70.9153108,3.73270859 C71.3600147,4.22951712 71.5829211,4.87113531 71.5829211,5.65533533 L71.5829211,5.65533533 L71.5829211,5.65533533 Z" id="Fill-20"></path>
                                <path d="M76.0286252,6.51973761 L76.0286252,5.70991743 C74.7587379,5.68763902 74.1237942,6.04075181 74.1237942,6.76814187 C74.1237942,7.04216631 74.1962965,7.24712768 74.3445964,7.38413989 C74.4928964,7.52115211 74.6818416,7.58910126 74.9070379,7.58910126 C75.1596971,7.58910126 75.3958786,7.50889899 75.6100897,7.3462666 C75.8275963,7.18474813 75.9605171,6.97755892 76.0099504,6.7258129 C76.0220341,6.66788903 76.0286252,6.59882596 76.0286252,6.51973761 L76.0286252,6.51973761 L76.0286252,6.51973761 Z M77.2238132,8.32428877 L76.1901074,8.32428877 L76.1033244,7.71942996 L76.0714674,7.71942996 C75.7177445,8.20175752 75.2135245,8.44347826 74.5588075,8.44347826 C74.0699668,8.44347826 73.6755987,8.28530155 73.3768017,7.96783422 C73.1065662,7.67932882 72.9714484,7.32287427 72.9714484,6.89847057 C72.9714484,6.25685238 73.2350928,5.76784129 73.7656772,5.42809555 C74.2951631,5.09057765 75.0399586,4.9246035 75.9989652,4.93128702 L75.9989652,4.83437594 C75.9989652,4.14263133 75.6408482,3.79731598 74.9235157,3.79731598 C74.4127046,3.79731598 73.962312,3.92653076 73.574535,4.18607423 L73.3405506,3.41858302 C73.8206032,3.11671058 74.4149016,2.96521739 75.1168549,2.96521739 C76.4702296,2.96521739 77.149114,3.6892657 77.149114,5.13736231 L77.149114,7.07112824 C77.149114,7.5968987 77.1743799,8.01461888 77.2238132,8.32428877 L77.2238132,8.32428877 L77.2238132,8.32428877 Z" id="Fill-21"></path>
                                <path d="M82.6913709,6.12196076 L82.6913709,5.25097614 C82.6913709,5.10027143 82.6801855,4.97837791 82.6589333,4.88529558 C82.5929397,4.60604861 82.4508857,4.37112655 82.2350082,4.18163753 C82.0168937,3.99104039 81.7540378,3.89684994 81.4509146,3.89684994 C81.0135671,3.89684994 80.6712951,4.06860899 80.4196245,4.4121271 C80.170191,4.75675332 80.0437965,5.19667812 80.0437965,5.73411773 C80.0437965,6.25050301 80.1634798,6.66937347 80.403965,6.99183724 C80.6578727,7.33535535 81.0001446,7.50822252 81.4285439,7.50822252 C81.8133202,7.50822252 82.1209176,7.36416654 82.3546916,7.07827083 C82.5806358,6.81342945 82.6913709,6.49429005 82.6913709,6.12196076 L82.6913709,6.12196076 L82.6913709,6.12196076 Z M83.9061008,8.32490911 L82.8658625,8.32490911 L82.8121728,7.48606006 L82.7786167,7.48606006 C82.4464115,8.12433886 81.8815509,8.44347826 81.0862719,8.44347826 C80.449825,8.44347826 79.9218761,8.19636685 79.5024251,7.70214403 C79.0829741,7.20681309 78.8726894,6.56631804 78.8726894,5.77733453 C78.8726894,4.93183674 79.0997522,4.24701678 79.5561148,3.72509089 C79.9979365,3.23751681 80.5393079,2.99372977 81.1847031,2.99372977 C81.8916177,2.99372977 82.3882477,3.22975995 82.6701187,3.70292843 L82.6913709,3.70292843 L82.6913709,0.704347826 L83.864715,0.704347826 L83.864715,6.91759301 C83.864715,7.42622143 83.8781374,7.89495742 83.9061008,8.32490911 L83.9061008,8.32490911 L83.9061008,8.32490911 Z" id="Fill-22"></path>
                                <path d="M92.5949976,5.69320862 C92.5949976,5.20976714 92.4907528,4.7942748 92.2833722,4.44784554 C92.038286,4.02789752 91.6922819,3.81848047 91.2387061,3.81848047 C90.7740404,3.81848047 90.4180555,4.02789752 90.1729693,4.44784554 C89.9655887,4.7942748 89.8613439,5.21645066 89.8613439,5.71437311 C89.8613439,6.19892851 89.9655887,6.61442085 90.1729693,6.96196404 C90.4247094,7.37968421 90.7751494,7.58910126 91.2287252,7.58910126 C91.6723202,7.58910126 92.0216512,7.37634245 92.2722823,6.95082483 C92.4863168,6.59659812 92.5949976,6.17776403 92.5949976,5.69320862 L92.5949976,5.69320862 L92.5949976,5.69320862 Z M93.7993578,5.65533533 C93.7993578,6.46292767 93.5697974,7.12459642 93.1106767,7.64368336 C92.6293762,8.17725127 91.9928175,8.44347826 91.1954556,8.44347826 C90.4291454,8.44347826 89.8180934,8.18839047 89.3611906,7.67598706 C88.9065058,7.16469756 88.6791634,6.51973761 88.6791634,5.74222112 C88.6791634,4.92794526 88.9131597,4.26182082 89.3833704,3.74273388 C89.852472,3.22364694 90.4857037,2.96521739 91.2830656,2.96521739 C92.0493758,2.96521739 92.6670818,3.2214191 93.1317474,3.73270859 C93.5764514,4.22951712 93.7993578,4.87113531 93.7993578,5.65533533 L93.7993578,5.65533533 L93.7993578,5.65533533 Z" id="Fill-23"></path>
                                <path d="M100.047731,8.26956522 L98.8819904,8.26956522 L98.8819904,5.29269157 C98.8819904,4.37537346 98.5301528,3.91671441 97.8231375,3.91671441 C97.476867,3.91671441 97.1962876,4.04350718 96.9813995,4.29599017 C96.7665114,4.54847315 96.6573972,4.84505797 96.6573972,5.18684717 L96.6573972,8.26956522 L95.4894301,8.26956522 L95.4894301,4.55839607 C95.4894301,4.10194211 95.4760692,3.60689904 95.448234,3.07216433 L96.4725712,3.07216433 L96.5271282,3.88474059 L96.5594171,3.88474059 C96.6963666,3.6322576 96.8990072,3.4227739 97.1639988,3.25739203 C97.4813206,3.06224142 97.8342716,2.96521739 98.2228517,2.96521739 C98.7127521,2.96521739 99.1191467,3.12177889 99.443149,3.43600445 C99.8473168,3.82079293 100.047731,4.39411674 100.047731,5.15707843 L100.047731,8.26956522" id="Fill-24"></path>
                                <path d="M107.858197,3.91097308 L106.566877,3.91097308 L106.566877,6.43961353 C106.566877,7.08226363 106.796072,7.40358868 107.251109,7.40358868 C107.46018,7.40358868 107.634592,7.38592133 107.772109,7.3494824 L107.803413,8.2284334 C107.571982,8.31345756 107.267879,8.35652174 106.892223,8.35652174 C106.42936,8.35652174 106.069356,8.2173913 105.809974,7.93913043 C105.547238,7.65976536 105.418665,7.19268461 105.418665,6.53567978 L105.418665,3.91097308 L104.647227,3.91097308 L104.647227,3.04416839 L105.418665,3.04416839 L105.418665,2.09013112 L106.566877,1.74782609 L106.566877,3.04416839 L107.858197,3.04416839 L107.858197,3.91097308" id="Fill-25"></path>
                                <path d="M113.933004,8.35652174 L112.777537,8.35652174 L112.777537,5.37443273 C112.777537,4.43418452 112.428031,3.96350406 111.73012,3.96350406 C111.194284,3.96350406 110.828239,4.2361204 110.627576,4.78246581 C110.593397,4.89707595 110.574654,5.03727864 110.574654,5.20196117 L110.574654,8.35652174 L109.42029,8.35652174 L109.42029,0.704347826 L110.574654,0.704347826 L110.574654,3.86558472 L110.595602,3.86558472 C110.959442,3.29030859 111.480945,3.00322689 112.156805,3.00322689 C112.635309,3.00322689 113.031122,3.1612331 113.345347,3.47835823 C113.737853,3.87337375 113.933004,4.4608898 113.933004,5.2375682 L113.933004,8.35652174" id="Fill-26"></path>
                                <path d="M119.236231,5.16254794 C119.245181,4.8165995 119.16799,4.51640554 119.009133,4.26419797 C118.805528,3.93945282 118.495645,3.77763823 118.076128,3.77763823 C117.693529,3.77763823 117.381409,3.93610494 117.143124,4.2541543 C116.948468,4.50636187 116.833241,4.80990373 116.795204,5.16254794 L119.236231,5.16254794 L119.236231,5.16254794 L119.236231,5.16254794 Z M120.354942,5.46608979 C120.354942,5.67589078 120.33928,5.85221288 120.311313,5.99617207 L116.795204,5.99617207 C116.810866,6.51621069 116.978673,6.91237744 117.304218,7.18690427 C117.601795,7.43241606 117.986631,7.55517196 118.45649,7.55517196 C118.976691,7.55517196 119.449905,7.47259072 119.878371,7.30631227 L120.06184,8.11761715 C119.561776,8.33411392 118.974453,8.44347826 118.29204,8.44347826 C117.475381,8.44347826 116.833241,8.20354628 116.367857,7.72256636 C115.900236,7.2427024 115.668663,6.59879193 115.668663,5.79083493 C115.668663,4.99738546 115.884574,4.33673554 116.319752,3.81000115 C116.773949,3.24643999 117.388121,2.96521739 118.163388,2.96521739 C118.921874,2.96521739 119.49801,3.24643999 119.887321,3.81000115 C120.199441,4.25750219 120.354942,4.80990373 120.354942,5.46608979 L120.354942,5.46608979 L120.354942,5.46608979 Z" id="Fill-27"></path>
                            </g>
                        </g>
                    </g>
                </g>
            </g>
        </g>
    </g>
</svg>