<?xml version="1.0" encoding="UTF-8" standalone="no"?>
<svg width="70px" height="15px" viewBox="0 0 70 15" version="1.1" xmlns="http://www.w3.org/2000/svg" xmlns:xlink="http://www.w3.org/1999/xlink">
    <!-- Generator: Sketch 40.3 (33839) - http://www.bohemiancoding.com/sketch -->
    <title>Logo</title>
    <desc>Created with Sketch.</desc>
    <defs></defs>
    <g id="Page-1" stroke="none" stroke-width="1" fill="none" fill-rule="evenodd">
        <g id="ragular_960x400" transform="translate(-870.000000, -240.000000)" fill="#FFFFFF">
            <g id="Controller" transform="translate(340.000000, 144.000000)">
                <g id="Logo" transform="translate(530.000000, 96.000000)">
                    <path d="M9.22983333,11.6035 C9.0095,11.6223333 8.44083333,11.6261667 7.89533333,11.6215 C7.31466667,11.6166667 6.38316667,11.584 6.12483333,11.5718333 C5.577,11.5456667 5.21933333,11.798 4.96066667,12.1215 C4.89333333,12.2013333 4.82316667,12.1916667 4.795,12.179 C4.732,12.1505 4.7115,12.11 4.707,12.0338333 C4.69233333,11.789 4.67233333,10.6006667 4.705,9.52116667 C4.73783333,8.4415 5.42466667,7.63016667 6.45216667,7.48683333 C7.03266667,7.40583333 7.5325,7.40666667 7.96866667,7.40616667 C8.52716667,7.40566667 9.018,7.4185 9.485,7.47116667 C10.4521667,7.58 11.2498333,8.5315 11.2498333,9.55766667 C11.2498333,10.6745 10.4045,11.5033333 9.22983333,11.6035 M4.701,4.444 C4.72633333,3.61116667 5.25616667,2.98516667 6.04883333,2.87466667 C6.4965,2.81216667 6.88216667,2.81283333 7.21866667,2.8125 C7.6495,2.812 8.02816667,2.822 8.3885,2.8625 C9.1345,2.9465 9.74983333,3.6805 9.74983333,4.47216667 C9.74983333,5.33366667 9.09766667,5.97316667 8.1915,6.05033333 C8.02166667,6.06483333 7.58283333,6.06783333 7.16216667,6.06433333 C6.71416667,6.0605 5.9955,6.03533333 5.79616667,6.02583333 C5.37366667,6.00566667 5.09766667,6.20033333 4.89816667,6.45 C4.84633333,6.51166667 4.792,6.50416667 4.77033333,6.49433333 C4.72183333,6.47233333 4.706,6.44116667 4.7025,6.38233333 C4.69133333,6.1935 4.67566667,5.27666667 4.701,4.444 M14.1761667,3.56966667 L11.4303333,0.823833333 C10.9028333,0.296333333 10.1875,0 9.4415,0 L5.55833333,0 C4.81233333,0 4.097,0.296333333 3.5695,0.823833333 L0.823666667,3.56966667 C0.296333333,4.09716667 0,4.8125 0,5.55833333 L0,9.44166667 C0,10.1875 0.296333333,10.903 0.823666667,11.4303333 L3.5695,14.1763333 C4.097,14.7036667 4.81233333,15 5.55833333,15 L9.4415,15 C10.1875,15 10.9028333,14.7036667 11.4303333,14.1763333 L14.1761667,11.4303333 C14.7036667,10.903 15,10.1875 15,9.44166667 L15,5.55833333 C15,4.8125 14.7036667,4.09716667 14.1761667,3.56966667" id="Fill-1"></path>
                    <path d="M30.5618003,11.2702703 C30.8228709,11.2702703 31.0310021,11.2315649 31.1863754,11.1544878 C31.3419299,11.0772439 31.4661197,10.9821488 31.5594887,10.868702 C31.6526764,10.7555889 31.7146807,10.6346346 31.7458641,10.5058392 C31.7768662,10.3772105 31.7926393,10.2612613 31.7926393,10.158325 L31.7926393,9.46329663 L30.8602185,9.46329663 C30.4620858,9.46329663 30.139011,9.53553554 29.8904501,9.67951285 C29.6417078,9.82399066 29.5176993,10.0709042 29.5176993,10.4207541 C29.5176993,10.6578245 29.595114,10.8585252 29.7506685,11.0231899 C29.9060418,11.1880214 30.1763586,11.2702703 30.5618003,11.2702703 L30.5618003,11.2702703 Z M33.9185514,12.8610277 C33.6696279,12.8610277 33.3837193,12.8199867 33.0604632,12.7374041 C32.7372071,12.6551552 32.4886461,12.4853187 32.3147804,12.2277277 C32.0785478,12.4647981 31.76762,12.6524858 31.3823596,12.7914581 C30.9967366,12.9304304 30.4871051,13 29.8531025,13 C29.4430041,13 29.0635453,12.9586253 28.7156325,12.8765432 C28.3673571,12.7941275 28.0660382,12.6578245 27.8113131,12.4671338 C27.5564067,12.2767768 27.3573403,12.0245245 27.2144767,11.7105439 C27.0714318,11.3963964 27,11.0025025 27,10.529029 C27,9.59225893 27.3386665,8.92809476 28.0163622,8.53670337 C28.6938766,8.14547881 29.6728913,7.94978312 30.9534062,7.94978312 L31.7926393,7.94978312 L31.7926393,7.62545879 C31.7926393,7.32716049 31.7021711,7.0980981 31.5221411,6.93810477 C31.3419299,6.77861195 31.0154104,6.69886553 30.5431265,6.69886553 C30.0084757,6.69886553 29.5144359,6.7325659 29.0608258,6.7992993 C28.6066718,6.86636637 28.1436341,6.95628962 27.6715315,7.06956957 L27.6715315,5.30897564 C27.8453973,5.2679346 28.0506277,5.22922923 28.2868604,5.19302636 C28.5229117,5.15715716 28.7685718,5.12362362 29.0234782,5.09275943 C29.278022,5.0617284 29.5390926,5.03853854 29.8065086,5.02318986 C30.0737434,5.00767434 30.3194035,5 30.5431265,5 C31.3386665,5 31.9790146,5.05405405 32.4639895,5.162329 C32.948783,5.27027027 33.3246159,5.4377711 33.5920319,5.66416416 C33.8592666,5.89072406 34.0396592,6.17917918 34.1328468,6.52902903 C34.2260345,6.87921255 34.2726284,7.29112446 34.2726284,7.7644311 L34.2726284,10.8223223 C34.2726284,10.976977 34.3223043,11.0979313 34.4220188,11.1851852 C34.5213706,11.2729396 34.7139102,11.31665 35,11.31665 L35,12.8610277 L33.9185514,12.8610277 Z" id="Fill-4"></path>
                    <path d="M39.5618003,11.2702703 C39.8228709,11.2702703 40.0310021,11.2315649 40.1863754,11.1544878 C40.3419299,11.0772439 40.4661197,10.9821488 40.5594887,10.868702 C40.6526764,10.7555889 40.7146807,10.6346346 40.7458641,10.5058392 C40.7768662,10.3772105 40.7926393,10.2612613 40.7926393,10.158325 L40.7926393,9.46329663 L39.8602185,9.46329663 C39.4620858,9.46329663 39.139011,9.53553554 38.8904501,9.67951285 C38.6417078,9.82399066 38.5176993,10.0709042 38.5176993,10.4207541 C38.5176993,10.6578245 38.595114,10.8585252 38.7506685,11.0231899 C38.9060418,11.1880214 39.1763586,11.2702703 39.5618003,11.2702703 L39.5618003,11.2702703 Z M42.9185514,12.8610277 C42.6696279,12.8610277 42.3837193,12.8199867 42.0604632,12.7374041 C41.7372071,12.6551552 41.4886461,12.4853187 41.3147804,12.2277277 C41.0785478,12.4647981 40.76762,12.6524858 40.3823596,12.7914581 C39.9967366,12.9304304 39.4871051,13 38.8531025,13 C38.4430041,13 38.0635453,12.9586253 37.7156325,12.8765432 C37.3673571,12.7941275 37.0660382,12.6578245 36.8113131,12.4671338 C36.5564067,12.2767768 36.3573403,12.0245245 36.2144767,11.7105439 C36.0714318,11.3963964 36,11.0025025 36,10.529029 C36,9.59225893 36.3386665,8.92809476 37.0163622,8.53670337 C37.6938766,8.14547881 38.6728913,7.94978312 39.9534062,7.94978312 L40.7926393,7.94978312 L40.7926393,7.62545879 C40.7926393,7.32716049 40.7021711,7.0980981 40.5221411,6.93810477 C40.3419299,6.77861195 40.0154104,6.69886553 39.5431265,6.69886553 C39.0084757,6.69886553 38.5144359,6.7325659 38.0608258,6.7992993 C37.6066718,6.86636637 37.1436341,6.95628962 36.6715315,7.06956957 L36.6715315,5.30897564 C36.8453973,5.2679346 37.0506277,5.22922923 37.2868604,5.19302636 C37.5229117,5.15715716 37.7685718,5.12362362 38.0234782,5.09275943 C38.278022,5.0617284 38.5390926,5.03853854 38.8065086,5.02318986 C39.0737434,5.00767434 39.3194035,5 39.5431265,5 C40.3386665,5 40.9790146,5.05405405 41.4639895,5.162329 C41.948783,5.27027027 42.3246159,5.4377711 42.5920319,5.66416416 C42.8592666,5.89072406 43.0396592,6.17917918 43.1328468,6.52902903 C43.2260345,6.87921255 43.2726284,7.29112446 43.2726284,7.7644311 L43.2726284,10.8223223 C43.2726284,10.976977 43.3223043,11.0979313 43.4220188,11.1851852 C43.5211893,11.2729396 43.7139102,11.31665 44,11.31665 L44,12.8610277 L42.9185514,12.8610277 Z" id="Fill-6"></path>
                    <path d="M56.5618003,11.2702703 C56.8228709,11.2702703 57.0310021,11.2315649 57.1863754,11.1544878 C57.3419299,11.0772439 57.4661197,10.9821488 57.5594887,10.868702 C57.6526764,10.7555889 57.7146807,10.6346346 57.7458641,10.5058392 C57.7768662,10.3772105 57.7926393,10.2612613 57.7926393,10.158325 L57.7926393,9.46329663 L56.8602185,9.46329663 C56.4620858,9.46329663 56.139011,9.53553554 55.8904501,9.67951285 C55.6417078,9.82399066 55.5176993,10.0709042 55.5176993,10.4207541 C55.5176993,10.6578245 55.595114,10.8585252 55.7506685,11.0231899 C55.9060418,11.1880214 56.1763586,11.2702703 56.5618003,11.2702703 L56.5618003,11.2702703 Z M59.9185514,12.8610277 C59.6696279,12.8610277 59.3837193,12.8199867 59.0604632,12.7374041 C58.7373884,12.6551552 58.4886461,12.4853187 58.3147804,12.2277277 C58.0785478,12.4647981 57.76762,12.6524858 57.3823596,12.7914581 C56.9967366,12.9304304 56.4871051,13 55.8531025,13 C55.4430041,13 55.0635453,12.9586253 54.7156325,12.8765432 C54.3673571,12.7941275 54.0660382,12.6578245 53.8113131,12.4671338 C53.5564067,12.2767768 53.3573403,12.0245245 53.2144767,11.7105439 C53.0714318,11.3963964 53,11.0025025 53,10.529029 C53,9.59225893 53.3386665,8.92809476 54.0163622,8.53670337 C54.6938766,8.14547881 55.6728913,7.94978312 56.9534062,7.94978312 L57.7926393,7.94978312 L57.7926393,7.62545879 C57.7926393,7.32716049 57.7021711,7.0980981 57.5221411,6.93810477 C57.3419299,6.77861195 57.0154104,6.69886553 56.5431265,6.69886553 C56.0084757,6.69886553 55.5144359,6.7325659 55.0608258,6.7992993 C54.6066718,6.86636637 54.1436341,6.95628962 53.6715315,7.06956957 L53.6715315,5.30897564 C53.8453973,5.2679346 54.0506277,5.22922923 54.2868604,5.19302636 C54.5229117,5.15715716 54.7685718,5.12362362 55.0234782,5.09275943 C55.278022,5.0617284 55.5390926,5.03853854 55.8065086,5.02318986 C56.0737434,5.00767434 56.3194035,5 56.5431265,5 C57.3386665,5 57.9790146,5.05405405 58.4639895,5.162329 C58.948783,5.27027027 59.3246159,5.4377711 59.5920319,5.66416416 C59.8592666,5.89072406 60.0396592,6.17917918 60.1328468,6.52902903 C60.2260345,6.87921255 60.2726284,7.29112446 60.2726284,7.7644311 L60.2726284,10.8223223 C60.2726284,10.976977 60.3223043,11.0979313 60.4220188,11.1851852 C60.5211893,11.2729396 60.7139102,11.31665 61,11.31665 L61,12.8610277 L59.9185514,12.8610277 Z" id="Fill-8"></path>
                    <path d="M67.4695336,9.07776213 C67.4695336,8.62144553 67.4445726,8.24011685 67.3951932,7.93377609 C67.3454521,7.62793972 67.2617061,7.38128665 67.1441362,7.1944894 C67.0260236,7.00786028 66.874268,6.87553856 66.6883267,6.79769236 C66.5023853,6.71967802 66.266522,6.68100712 65.9812793,6.68100712 C65.7083362,6.68100712 65.4789844,6.71967802 65.293043,6.79769236 C65.1069208,6.87553856 64.9580592,7.00786028 64.8464582,7.1944894 C64.7346763,7.38128665 64.6538244,7.62793972 64.6046259,7.93377609 C64.5548848,8.24011685 64.5301047,8.62144553 64.5301047,9.07776213 C64.5301047,9.51356634 64.551629,9.8742145 64.5952203,10.1595385 C64.6386308,10.4451987 64.716046,10.6731889 64.8278279,10.8443496 C64.9394289,11.0155104 65.0882905,11.1377441 65.2744127,11.2100418 C65.4603541,11.282844 65.6958557,11.319161 65.9812793,11.319161 C66.266522,11.319161 66.5050985,11.282844 66.6975514,11.2100418 C66.8898234,11.1377441 67.0415791,11.0155104 67.1533609,10.8443496 C67.2649619,10.6731889 67.3454521,10.4451987 67.3951932,10.1595385 C67.4445726,9.8742145 67.4695336,9.51356634 67.4695336,9.07776213 M70,8.84439167 C70,9.66404657 69.9129983,10.3412917 69.7393565,10.8754545 C69.5655339,11.4101217 69.3115829,11.8353334 68.9765991,12.1519304 C68.6416152,12.4683592 68.2230663,12.6887833 67.7207714,12.8132027 C67.2186574,12.9377903 66.6385855,13 65.9812793,13 C65.3237921,13 64.746976,12.9377903 64.2510118,12.8132027 C63.7548667,12.6887833 63.3393927,12.4683592 63.0045897,12.1519304 C62.6697868,11.8353334 62.4185489,11.4101217 62.251057,10.8754545 C62.083746,10.3412917 62,9.66404657 62,8.84439167 C62,7.51613039 62.3130977,6.54347324 62.9394741,5.92608394 C63.5656696,5.30886278 64.5796649,5 65.9812793,5 C67.3827127,5 68.402677,5.30886278 69.0417147,5.92608394 C69.6803907,6.54347324 70,7.51613039 70,8.84439167" id="Fill-10"></path>
                    <path d="M23.4302363,11.0664242 C23.2534169,11.3579259 22.9328211,11.5035051 22.468771,11.5035051 C22.3137116,11.5035051 22.164616,11.50093 22.0210006,11.4956081 C21.8772241,11.4902862 21.7500495,11.4823892 21.6397994,11.4717455 C21.5179439,11.4612734 21.396572,11.4557798 21.2748778,11.4557798 L21.2748778,9.15466739 L21.2748778,8.3091751 L22.2697082,8.3091751 C22.4576493,8.3091751 22.6370476,8.33303772 22.8085478,8.3805913 C22.9797257,8.42831655 23.1317227,8.51329496 23.2645387,8.63483984 C23.3970323,8.75689975 23.5021245,8.91586946 23.5793319,9.111749 C23.5827168,9.12033268 23.5849733,9.13046142 23.588197,9.13921677 C23.658957,9.33149116 23.6955459,9.57286419 23.6955459,9.86659765 C23.6955459,10.3750947 23.6068944,10.7750941 23.4302363,11.0664242 L23.4302363,11.0664242 Z M21.2748778,3.95484686 C21.3854503,3.94437477 21.5013419,3.93373101 21.6231974,3.92291557 C21.7334475,3.91261516 21.855303,3.9045465 21.9877966,3.89922462 C22.1204514,3.89390274 22.2532674,3.89115596 22.385761,3.89115596 C22.7173174,3.89115596 22.9768244,4.00240043 23.1649267,4.22488937 C23.3527066,4.44737831 23.4468383,4.76016754 23.4468383,5.16257037 C23.4468383,5.64995161 23.3472263,5.99947899 23.1483247,6.21132416 C22.9494231,6.42334101 22.6178666,6.5292636 22.1536554,6.5292636 L21.2748778,6.5292636 L21.2748778,3.95484686 Z M25.8423616,8.73029034 C25.7372693,8.41784446 25.6021968,8.15810236 25.4361768,7.95157906 C25.2704792,7.74505577 25.079798,7.58591438 24.8642943,7.47484158 C24.6487907,7.36342544 24.4303858,7.29750279 24.2094019,7.27621527 C24.3860601,7.22316814 24.5628794,7.14917683 24.7400211,7.05372633 C24.9166793,6.95844751 25.0741565,6.82316874 25.2124528,6.64840505 C25.3505878,6.47364136 25.4637393,6.2538992 25.5523908,5.98883522 C25.6405587,5.72428626 25.6848844,5.40085327 25.6848844,5.01939462 C25.6848844,4.48978168 25.6212165,4.03416004 25.4943644,3.65270139 C25.3671898,3.2714144 25.1571665,2.95896852 24.8642943,2.71502039 C24.571261,2.47158728 24.1927999,2.29150171 23.7287499,2.17476369 C23.2645387,2.05836901 22.6949128,2 22.0210006,2 C21.7445693,2 21.4325162,2.00549355 21.0841966,2.01579397 C20.7361993,2.02643773 20.4070607,2.04240337 20.0979089,2.06351922 C19.7331485,2.08497841 19.3685493,2.11124447 19.0036277,2.14300408 L19.0036277,12.1632466 C18.9986309,12.5764648 18.9989533,12.9647904 19.0036277,13.2677943 C19.0078185,13.5467638 19.0139435,13.7551755 19.0194237,13.8429007 C19.0242593,13.9208405 19.0461804,13.9622138 19.1132331,13.9912267 C19.1432134,14.0042739 19.2181642,14.0142309 19.2898912,13.932686 C19.5656778,13.6020427 19.9470403,13.344189 20.5310115,13.3707984 C20.5851695,13.3733735 20.6676959,13.3766353 20.7689198,13.3802405 C20.5429392,13.3711418 20.3275967,13.3601547 20.125955,13.3467641 C20.1253103,13.3467641 20.1248267,13.3464208 20.124182,13.3464208 C20.1264386,13.3464208 20.1286951,13.3467641 20.1311129,13.3467641 C20.3327547,13.3601547 20.5480971,13.3711418 20.7739165,13.3802405 C20.840808,13.3826439 20.9162424,13.3853907 20.9974793,13.3881374 C21.0595353,13.3901975 21.1196571,13.3927726 21.1838086,13.3944894 C21.2008941,13.3950044 21.2170126,13.3951761 21.2339369,13.3955194 C21.5969243,13.4051331 21.9481452,13.410455 22.2864714,13.410455 C22.8167682,13.410455 23.3083808,13.3627298 23.7617927,13.2674509 C24.2148822,13.1720004 24.6072051,12.9946616 24.9389227,12.7349195 C25.2704792,12.4755208 25.5301473,12.1153496 25.7180884,11.6544061 C25.8160885,11.4138915 25.8879768,11.1342352 25.9348815,10.8171542 C25.9779177,10.5268542 26,10.2053096 26,9.85063201 C26,9.4162979 25.9474539,9.0429079 25.8423616,8.73029034 L25.8423616,8.73029034 Z" id="Fill-13"></path>
                    <path d="M49.5795927,10.24294 C49.5330367,10.5914706 49.4488972,10.8649438 49.3270049,11.0631858 C49.2051127,11.2617752 49.0397117,11.3955582 48.830802,11.4652295 C48.6217229,11.5352484 48.3545758,11.5698235 48.0298684,11.5698235 C47.9135629,11.5698235 47.7974267,11.5672173 47.6814598,11.5616575 C47.5653236,11.5564452 47.4434314,11.5482792 47.3157831,11.5375071 L47.3157831,8.11179521 C47.3157831,7.82233759 47.4261633,7.54886442 47.6467544,7.29154945 C47.8670069,7.03423448 48.1690287,6.90549012 48.5521428,6.90549012 C48.7612218,6.90549012 48.9352568,6.93242045 49.0745864,6.98593363 C49.2137467,7.03979429 49.3270049,7.13865467 49.4141917,7.28338348 C49.5012092,7.42828603 49.5621554,7.62930792 49.5970301,7.88662289 C49.6319048,8.14393786 49.6491729,8.47648402 49.6491729,8.88391387 C49.6491729,9.44145859 49.6256409,9.89458313 49.5795927,10.24294 M51.8257957,6.9779414 C51.7096595,6.51143857 51.5356245,6.13893128 51.3035213,5.86024579 C51.0710796,5.58138655 50.7749831,5.38036466 50.415401,5.25700637 C50.055311,5.13382182 49.6374915,5.07196893 49.1617732,5.07196893 C48.7900019,5.07196893 48.4503966,5.12304969 48.1429573,5.22486372 C47.8353487,5.32667774 47.5595676,5.46358807 47.3157831,5.63507347 L47.3157831,2 L45,2 L45,13.1781723 C45.0044017,13.4605065 45.0108349,13.7522228 45.0165909,13.841006 C45.0216697,13.9198858 45.0445245,13.9617581 45.1151204,13.9911209 C45.1466093,14.0043254 45.2253313,14.0144026 45.3006675,13.9318741 C45.5903309,13.597243 45.9908823,13.3361057 46.6042372,13.3632098 C46.6465609,13.365121 46.7056448,13.3673796 46.7770872,13.3699858 C47.1146609,13.3913563 47.4777982,13.4033447 47.8731015,13.4033447 C48.6391603,13.4033447 49.2862049,13.3253336 49.8147432,13.1700064 C50.3427735,13.0148529 50.766349,12.7545843 51.0858083,12.3900692 C51.4049289,12.0257279 51.637032,11.5430669 51.7822869,10.9424336 C51.9273725,10.3421479 52,9.6023456 52,8.72285311 C52,8.02613938 51.9417626,7.44444423 51.8257957,6.9779414" id="Fill-15"></path>
                </g>
            </g>
        </g>
    </g>
</svg>